<?xml version="1.0" encoding="UTF-8" standalone="no"?>
<svg
   
   width="275.41507mm"
   height="40.094398mm"
   viewBox="0 0 275.41507 55.094398"
   version="1.1"
   id="svg2011">
  <defs
     id="defs2005">
  </defs>
  <metadata
     id="metadata2008">
   </metadata>
  <g
     id="g2858"
     transform="translate(-398.19535,-29.013588)"
     style="fill:#42ffdc;fill-opacity:1">
    <g
       aria-label="soundpost"
       transform="translate(730.73096,142.25308)"
       id="text2246-8"
       style="font-style:normal;font-variant:normal;font-weight:normal;font-stretch:normal;font-size:50.8px;line-height:1.25;font-family:'P22 Bayer Universal';-inkscape-font-specification:'P22 Bayer Universal';letter-spacing:0px;word-spacing:0px;white-space:pre;shape-inside:url(#rect2248-8);fill:#42ffdc;fill-opacity:1;stroke:none" />
    <g
       id="g2108-4-6"
       transform="matrix(0.13939063,0,0,0.13939063,434.93209,24.564536)"
       style="fill:#42ffdc;fill-opacity:1">
      <g
         id="g907">
        <path
           d="m -270.70674,-86.772693 q 0,2.9464 -1.9812,5.1308 -1.9304,2.1844 -4.826,2.3876 -1.3716,0 -3.7592,0 -2.54,0 -3.4036,0 -4.9276,-0.6096 -4.9276,-5.6896 0,-0.6096 0,-1.4224 l 5.9944,0.0508 q 0,0.3048 0.1016,0.508 0.2032,0.508 0.7112,0.508 l 4.1656,0.0508 q 0.5588,0 0.9652,-0.508 0.4572,-0.5588 0.4572,-1.1684 0,-1.4732 -1.4224,-1.4732 -1.7272,0 -5.1308,0 -2.7432,-0.0508 -4.826,-2.032 -2.032,-2.032 -2.032,-4.9784 0,-2.9464 1.9304,-5.079997 1.9812,-2.1844 4.8768,-2.3876 h 7.6708 q 1.778,0.1524 3.2004,2.032 1.4732,1.828797 1.524,3.860797 l 0.0508,1.27 h -5.6388 q -0.1016,-1.3716 -1.2192,-1.3716 h -4.4196 q -1.3716,0 -1.3716,1.4224 0,0.6096 0.4064,1.1176 0.4064,0.508 1.016,0.508 l 4.6736,0.1016 q 2.794,0.0508 4.9784,2.1336 2.2352,2.0828 2.2352,5.0292 z"
           style="fill:#42ffdc;fill-opacity:1;font-style:normal;font-variant:normal;font-weight:normal;font-stretch:normal;font-size:50.8px;line-height:1.25;font-family:'P22 Bayer Universal';-inkscape-font-specification:'P22 Bayer Universal';letter-spacing:0px;word-spacing:0px;white-space:pre;shape-inside:url(#rect2248-8);stroke:none"
           id="path854"
           transform="matrix(7.1740833,0,0,7.1740833,2122.0858,844.30743)" />
        <path
           d="m -242.73341,-90.989093 q 0,4.9276 -3.5052,8.4328 -3.4544,3.5052 -8.4328,3.5052 -4.9276,0 -8.4328,-3.5052 -3.5052,-3.5052 -3.5052,-8.4328 0,-4.9784 3.5052,-8.4836 3.5052,-3.505197 8.4328,-3.505197 4.9784,0 8.4328,3.505197 3.5052,3.5052 3.5052,8.4836 z m -6.2484,0 q 0,-2.3876 -1.6764,-4.0132 -1.6764,-1.6764 -4.0132,-1.6764 -2.3368,0 -4.0132,1.6764 -1.6256,1.6256 -1.6256,4.0132 0,2.3368 1.6256,4.0132 1.6764,1.6256 4.0132,1.6256 2.3368,0 4.0132,-1.6256 1.6764,-1.6764 1.6764,-4.0132 z"
           style="fill:#42ffdc;fill-opacity:1;font-style:normal;font-variant:normal;font-weight:normal;font-stretch:normal;font-size:50.8px;line-height:1.25;font-family:'P22 Bayer Universal';-inkscape-font-specification:'P22 Bayer Universal';letter-spacing:0px;word-spacing:0px;white-space:pre;shape-inside:url(#rect2248-8);stroke:none"
           id="path856"
           transform="matrix(7.1740833,0,0,7.1740833,2122.0858,844.30743)" />
        <path
           d="m -214.24572,-90.785893 q -0.0508,4.8768 -3.556,8.3312 -3.4544,3.4544 -8.382,3.4544 -4.9276,0 -8.4328,-3.4544 -3.5052,-3.5052 -3.5052,-8.4836 v -11.785597 h 6.2484 l 0.0508,11.785597 q 0,2.3876 1.6256,4.064 1.6764,1.6256 4.0132,1.6256 2.1844,0 3.7592,-1.4224 1.6256,-1.4732 1.8796,-3.6068 l 0.0508,-12.445997 h 6.2484 z"
           style="fill:#42ffdc;fill-opacity:1;font-style:normal;font-variant:normal;font-weight:normal;font-stretch:normal;font-size:50.8px;line-height:1.25;font-family:'P22 Bayer Universal';-inkscape-font-specification:'P22 Bayer Universal';letter-spacing:0px;word-spacing:0px;white-space:pre;shape-inside:url(#rect2248-8);stroke:none"
           id="path858"
           transform="matrix(7.1740833,0,0,7.1740833,2122.0858,844.30743)" />
        <path
           d="m -184.96905,-79.305093 h -6.2992 l -0.0508,-11.6332 q 0,-2.3876 -1.6764,-4.064 -1.6764,-1.6764 -4.064,-1.6764 -2.1844,0 -3.81,1.4732 -1.6256,1.4224 -1.8288,3.6068 l -0.0508,12.2936 h -6.4008 v -11.7856 q 0.0508,-4.9784 3.6068,-8.4328 3.556,-3.505197 8.4836,-3.505197 5.0292,0 8.5344,3.555997 3.556,3.5052 3.556,8.5344 z"
           style="fill:#42ffdc;fill-opacity:1;font-style:normal;font-variant:normal;font-weight:normal;font-stretch:normal;font-size:50.8px;line-height:1.25;font-family:'P22 Bayer Universal';-inkscape-font-specification:'P22 Bayer Universal';letter-spacing:0px;word-spacing:0px;white-space:pre;shape-inside:url(#rect2248-8);stroke:none"
           id="path860"
           transform="matrix(7.1740833,0,0,7.1740833,2122.0858,844.30743)" />
        <path
           d="m -156.46152,-113.23949 v 22.605997 q -0.2032,4.826 -3.6576,8.2296 -3.4544,3.3528 -8.3312,3.3528 -4.9276,0 -8.4328,-3.5052 -3.5052,-3.5052 -3.5052,-8.4836 0,-4.9276 3.5052,-8.4328 3.5052,-3.505197 8.4328,-3.505197 2.9972,0 5.588,1.3716 v -11.6332 z m -6.2992,22.199597 q 0,-2.3368 -1.6764,-3.9624 -1.6256,-1.6764 -4.0132,-1.6764 -2.3368,0 -4.0132,1.6764 -1.6256,1.6256 -1.6256,3.9624 0,2.3876 1.6256,4.064 1.6764,1.6256 4.0132,1.6256 2.3876,0 4.0132,-1.6256 1.6764,-1.6764 1.6764,-4.064 z"
           style="fill:#42ffdc;fill-opacity:1;font-style:normal;font-variant:normal;font-weight:normal;font-stretch:normal;font-size:50.8px;line-height:1.25;font-family:'P22 Bayer Universal';-inkscape-font-specification:'P22 Bayer Universal';letter-spacing:0px;word-spacing:0px;white-space:pre;shape-inside:url(#rect2248-8);stroke:none"
           id="path862"
           transform="matrix(7.1740833,0,0,7.1740833,2122.0858,844.30743)" />
        <path
           d="m -127.47773,-91.090693 q 0,4.9784 -3.5052,8.4836 -3.5052,3.5052 -8.4328,3.5052 -2.9464,0 -5.588,-1.3716 v 11.3284 h -6.4008 v -22.352 q 0.1524,-4.7752 3.6068,-8.128 3.5052,-3.403597 8.382,-3.403597 4.9276,0 8.4328,3.505197 3.5052,3.5052 3.5052,8.4328 z m -6.2992,0 q 0,-2.3368 -1.6764,-3.9624 -1.6256,-1.6764 -3.9624,-1.6764 -2.3876,0 -4.064,1.6764 -1.6256,1.6256 -1.6256,3.9624 0,2.3876 1.6256,4.064 1.6764,1.6256 4.064,1.6256 2.3368,0 3.9624,-1.6256 1.6764,-1.6764 1.6764,-4.064 z"
           style="fill:#42ffdc;fill-opacity:1;font-style:normal;font-variant:normal;font-weight:normal;font-stretch:normal;font-size:50.8px;line-height:1.25;font-family:'P22 Bayer Universal';-inkscape-font-specification:'P22 Bayer Universal';letter-spacing:0px;word-spacing:0px;white-space:pre;shape-inside:url(#rect2248-8);stroke:none"
           id="path864"
           transform="matrix(7.1740833,0,0,7.1740833,2122.0858,844.30743)" />
        <path
           d="m -99.56075,-90.989093 q 0,4.9276 -3.5052,8.4328 -3.4544,3.5052 -8.4328,3.5052 -4.9276,0 -8.4328,-3.5052 -3.5052,-3.5052 -3.5052,-8.4328 0,-4.9784 3.5052,-8.4836 3.5052,-3.505197 8.4328,-3.505197 4.9784,0 8.4328,3.505197 3.5052,3.5052 3.5052,8.4836 z m -6.2484,0 q 0,-2.3876 -1.6764,-4.0132 -1.6764,-1.6764 -4.0132,-1.6764 -2.3368,0 -4.0132,1.6764 -1.6256,1.6256 -1.6256,4.0132 0,2.3368 1.6256,4.0132 1.6764,1.6256 4.0132,1.6256 2.3368,0 4.0132,-1.6256 1.6764,-1.6764 1.6764,-4.0132 z"
           style="fill:#42ffdc;fill-opacity:1;font-style:normal;font-variant:normal;font-weight:normal;font-stretch:normal;font-size:50.8px;line-height:1.25;font-family:'P22 Bayer Universal';-inkscape-font-specification:'P22 Bayer Universal';letter-spacing:0px;word-spacing:0px;white-space:pre;shape-inside:url(#rect2248-8);stroke:none"
           id="path866"
           transform="matrix(7.1740833,0,0,7.1740833,2122.0858,844.30743)" />
        <path
           d="m -75.543475,-86.772693 q 0,2.9464 -1.9812,5.1308 -1.9304,2.1844 -4.826,2.3876 -1.3716,0 -3.7592,0 -2.54,0 -3.4036,0 -4.9276,-0.6096 -4.9276,-5.6896 0,-0.6096 0,-1.4224 l 5.9944,0.0508 q 0,0.3048 0.1016,0.508 0.2032,0.508 0.7112,0.508 l 4.1656,0.0508 q 0.5588,0 0.9652,-0.508 0.4572,-0.5588 0.4572,-1.1684 0,-1.4732 -1.4224,-1.4732 -1.7272,0 -5.1308,0 -2.7432,-0.0508 -4.826,-2.032 -2.032,-2.032 -2.032,-4.9784 0,-2.9464 1.9304,-5.079997 1.9812,-2.1844 4.8768,-2.3876 h 7.6708 q 1.778,0.1524 3.2004,2.032 1.4732,1.828797 1.524,3.860797 l 0.0508,1.27 h -5.6388 q -0.1016,-1.3716 -1.2192,-1.3716 h -4.4196 q -1.3716,0 -1.3716,1.4224 0,0.6096 0.4064,1.1176 0.4064,0.508 1.016,0.508 l 4.6736,0.1016 q 2.794,0.0508 4.9784,2.1336 2.2352,2.0828 2.2352,5.0292 z"
           style="fill:#42ffdc;fill-opacity:1;font-style:normal;font-variant:normal;font-weight:normal;font-stretch:normal;font-size:50.8px;line-height:1.25;font-family:'P22 Bayer Universal';-inkscape-font-specification:'P22 Bayer Universal';letter-spacing:0px;word-spacing:0px;white-space:pre;shape-inside:url(#rect2248-8);stroke:none"
           id="path868"
           transform="matrix(7.1740833,0,0,7.1740833,2122.0858,844.30743)" />
        <path
           d="m -57.120534,-96.424693 h -4.2672 v 17.1704 h -6.4516 l 0.0508,-17.1704 q -1.3208,0 -4.1656,0 v -6.400797 l 4.1656,0.0508 v -8.4836 h 6.4008 v 8.4836 l 4.2672,-0.0508 z"
           style="fill:#42ffdc;fill-opacity:1;font-style:normal;font-variant:normal;font-weight:normal;font-stretch:normal;font-size:50.8px;line-height:1.25;font-family:'P22 Bayer Universal';-inkscape-font-specification:'P22 Bayer Universal';letter-spacing:0px;word-spacing:0px;white-space:pre;shape-inside:url(#rect2248-8);stroke:none"
           id="path870"
           transform="matrix(7.1740833,0,0,7.1740833,2122.0858,844.30743)" />
        <path
           id="path833-44-3"
           style="fill:#42ffdc;fill-opacity:1;stroke:none;stroke-width:0.934923;stroke-linejoin:round"
           d="m -757.16602,266.84766 a 475.03578,475.03578 0 0 0 -1.99609,1.14843 h 131.98828 v -1.14843 z m -20.36718,12.35351 a 475.03578,475.03578 0 0 0 -3.59766,2.33008 h 153.95703 v -2.33008 z m -20.01758,13.57031 a 475.03578,475.03578 0 0 0 -5.93945,4.32227 h 176.3164 v -4.32227 z m -11.73633,15.61524 v 8.83398 h 182.11328 v -8.83398 z m 0,20.17773 v 12.51172 h 182.11328 v -12.51172 z m 396.70117,0 v 12.51172 h 182.11328 v -12.51172 z m -396.70117,23.91993 v 23.22265 h 182.11328 v -23.22265 z m 396.70117,0 v 23.22265 h 182.11328 v -23.22265 z m 198.35156,0 v 23.22265 h 58.73047 a 475.03578,475.03578 0 0 0 -20.58789,-23.22265 z m -681.62695,34.70312 a 475.03578,475.03578 0 0 0 -22.71289,31.7793 h 93.04883 v -31.7793 z m 86.57422,0 v 31.7793 h 182.11328 v -31.7793 z m 396.70117,0 v 31.7793 h 182.11328 v -31.7793 z m 198.35156,0 v 31.7793 h 90.67383 a 475.03578,475.03578 0 0 0 -22.71484,-31.7793 z m -711.66601,43.33594 a 475.03578,475.03578 0 0 0 -25.81836,48.03711 h 126.19336 v -48.03711 z m 116.61328,0 v 48.03711 h 182.11328 v -48.03711 z m 396.70117,0 v 48.03711 h 182.11328 v -48.03711 z m 198.35156,0 v 48.03711 h 123.814458 a 475.03578,475.03578 0 0 0 -25.816408,-48.03711 z m -742.7207,59.68945 a 475.03578,475.03578 0 0 0 -24.20508,70.63086 h 155.63477 v -70.63086 z m 147.66797,0 v 70.63086 h 182.11328 v -70.63086 z m 198.35156,0 v 70.63086 h 182.11133 v -70.63086 z m 198.34961,0 v 70.63086 h 182.11328 v -70.63086 z m 198.35156,0 v 70.63086 h 153.257818 a 475.03578,475.03578 0 0 0 -24.205079,-70.63086 z m -769.78124,82.36719 a 475.03578,475.03578 0 0 0 -11.68946,87.03906 h 170.17969 v -87.03906 z m 174.72851,0 v 87.03906 h 182.11328 v -87.03906 z m 198.35156,0 v 87.03906 h 182.11133 v -87.03906 z m 198.34961,0 v 87.03906 h 182.11328 v -87.03906 z m 198.35156,0 v 87.03906 h 167.802739 a 475.03578,475.03578 0 0 0 -11.6875,-87.03906 z m -781.80859,98.89453 a 475.03578,475.03578 0 0 0 -0.0606,7.58203 475.03578,475.03578 0 0 0 18.30664,130.60352 h 152.27149 V 671.47461 Z m 186.75586,0 v 138.18555 h 182.11328 V 671.47461 Z m 198.35156,0 v 138.18555 h 182.11133 V 671.47461 Z m 198.34961,0 v 138.18555 h 182.11328 V 671.47461 Z m 198.35156,0 v 138.18555 h 149.894536 a 475.03578,475.03578 0 0 0 18.306641,-130.60352 475.03578,475.03578 0 0 0 -0.06055,-7.58203 z m -759.95507,150.20508 a 475.03578,475.03578 0 0 0 120.20117,196.23241 h 28.46289 V 821.67969 Z m 164.90234,0 v 196.23241 h 182.11328 V 821.67969 Z m 198.35156,0 v 196.23241 h 182.11133 V 821.67969 Z m 198.34961,0 v 196.23241 h 182.11328 V 821.67969 Z m 198.35156,0 v 196.23241 h 26.08594 A 475.03578,475.03578 0 0 0 -67.949219,821.67969 Z m -626.10156,209.12691 a 475.03578,475.03578 0 0 0 319.26758,123.2852 475.03578,475.03578 0 0 0 319.26563,-123.2852 z"
           transform="scale(0.26458333)" />
      </g>
    </g>
  </g>
</svg>
